<svg xmlns="http://www.w3.org/2000/svg" style="display:none">
  <defs>
    <style>
      .tableu-fill {
        fill: var(--fill, currentColor);
      }
      .tableu-stroke {
        fill: none;
        stroke: var(--fill, currentColor);
        stroke-width: 6;
        stroke-linecap: round;
        stroke-linejoin: round;
      }
      .theme-primary {
        --fill: #C9B36E;
      }
      .theme-mono {
        --fill: #000000;
      }
      .theme-dark {
        --fill: #FFFFFF;
      }
    </style>

    <!-- Tableu Logo Art: Octopus in tarot card frame with celestial elements -->
    <g id="tableu-art-shape">
      <!-- Card Frame (rounded rectangle with divider) -->
      <rect class="tableu-stroke" x="100" y="40" width="232" height="340" rx="20" ry="20"/>
      <!-- Top divider line -->
      <line class="tableu-stroke" x1="216" y1="40" x2="216" y2="120"/>

      <!-- Crescent Moon (upper left) -->
      <path class="tableu-fill" d="M145 90
        a 28 28 0 1 1 0 50
        a 22 22 0 1 0 0 -50 Z"/>

      <!-- Star upper right (4-pointed) -->
      <path class="tableu-fill" d="M275 75
        l 4 12 l 12 4 l -12 4 l -4 12
        l -4 -12 l -12 -4 l 12 -4 Z"/>

      <!-- Line from octopus arm to star -->
      <path class="tableu-stroke" stroke-width="4" d="M255 140 Q 270 110 275 95"/>

      <!-- Octopus Head -->
      <ellipse class="tableu-fill" cx="216" cy="190" rx="55" ry="50"/>

      <!-- Octopus closed eyes (curved lines) -->
      <path class="tableu-stroke" stroke-width="5" fill="none" stroke="#1a1a2e" d="M190 200 Q 200 210 210 200"/>
      <path class="tableu-stroke" stroke-width="5" fill="none" stroke="#1a1a2e" d="M222 200 Q 232 210 242 200"/>

      <!-- Octopus smile -->
      <path class="tableu-stroke" stroke-width="4" fill="none" stroke="#1a1a2e" d="M200 220 Q 216 235 232 220"/>

      <!-- Octopus Tentacles (8 total) -->
      <!-- Upper left tentacle (reaching up) -->
      <path class="tableu-fill" d="M175 175 Q 150 150 145 170 Q 155 175 165 180 Q 170 185 175 190 Z"/>
      <!-- Upper right tentacle (reaching to star) -->
      <path class="tableu-fill" d="M257 175 Q 270 145 260 140 Q 252 150 250 165 Q 253 175 257 185 Z"/>

      <!-- Mid-upper left -->
      <path class="tableu-fill" d="M165 200 Q 130 190 125 210 Q 140 215 155 215 Q 160 210 165 205 Z"/>
      <!-- Mid-upper right -->
      <path class="tableu-fill" d="M267 200 Q 290 195 290 215 Q 275 218 265 215 Q 265 210 267 205 Z"/>

      <!-- Lower tentacles (4 hanging down) -->
      <path class="tableu-fill" d="M180 235 Q 165 280 155 320 Q 160 325 170 315 Q 178 275 185 240 Z"/>
      <path class="tableu-fill" d="M200 240 Q 190 290 185 340 Q 195 345 200 335 Q 205 290 208 245 Z"/>
      <path class="tableu-fill" d="M232 240 Q 242 290 247 340 Q 237 345 232 335 Q 227 290 224 245 Z"/>
      <path class="tableu-fill" d="M252 235 Q 267 280 277 320 Q 272 325 262 315 Q 254 275 247 240 Z"/>

      <!-- Stars on left side -->
      <!-- Lower left star (outside frame) -->
      <path class="tableu-fill" d="M70 270
        l 3 9 l 9 3 l -9 3 l -3 9
        l -3 -9 l -9 -3 l 9 -3 Z"/>
      <!-- Second star (inside frame area) -->
      <path class="tableu-fill" d="M95 310
        l 2 6 l 6 2 l -6 2 l -2 6
        l -2 -6 l -6 -2 l 6 -2 Z"/>

      <!-- Line connecting to stars -->
      <path class="tableu-stroke" stroke-width="3" d="M145 260 L 80 275"/>

      <!-- Eye symbol (right side, outside frame) -->
      <g transform="translate(350, 230)">
        <!-- Eye outline -->
        <ellipse class="tableu-stroke" stroke-width="5" cx="0" cy="0" rx="28" ry="18"/>
        <!-- Iris -->
        <circle class="tableu-stroke" stroke-width="4" cx="0" cy="0" r="8"/>
        <!-- Pupil -->
        <circle class="tableu-fill" cx="0" cy="0" r="3"/>
      </g>

      <!-- Line from tentacle to eye -->
      <path class="tableu-stroke" stroke-width="3" d="M290 215 L 320 225"/>

      <!-- Curved base/horizon line inside card -->
      <path class="tableu-stroke" stroke-width="5" d="M110 355 Q 216 380 322 355"/>
    </g>
  </defs>

  <symbol id="tableu-mark" viewBox="0 0 432 400">
    <g class="theme-primary">
      <use href="#tableu-art-shape" />
    </g>
  </symbol>

  <symbol id="tableu-primary" viewBox="0 0 432 400">
    <use href="#tableu-mark" />
  </symbol>

  <symbol id="tableu-icon" viewBox="0 0 432 400">
    <use href="#tableu-mark" />
  </symbol>

  <symbol id="tableu-mono" viewBox="0 0 432 400">
    <g class="theme-mono">
      <use href="#tableu-art-shape" />
    </g>
  </symbol>

  <symbol id="tableu-dark" viewBox="0 0 432 400">
    <g class="theme-dark">
      <use href="#tableu-art-shape" />
    </g>
  </symbol>

  <symbol id="tableu-favicon" viewBox="60 20 320 400">
    <g class="theme-primary">
      <use href="#tableu-art-shape" />
    </g>
  </symbol>

  <symbol id="tableu-full" viewBox="0 0 432 500">
    <g class="theme-primary">
      <use href="#tableu-art-shape" />
      <text
        x="216"
        y="470"
        text-anchor="middle"
        font-family="'Cormorant Garamond', 'Times New Roman', serif"
        font-size="56"
        font-weight="400"
        letter-spacing="14"
        class="tableu-fill"
      >TABLEU</text>
    </g>
  </symbol>
</svg>
