<svg xmlns="http://www.w3.org/2000/svg" style="display:none">
  <defs>
    <!-- ===========================
         STYLE DEFINITIONS
         =========================== -->
    <style>
      /* Base stroke/fill classes */
      .t-stroke {
        fill: none;
        stroke: var(--stroke, currentColor);
        stroke-width: var(--sw, 6);
        stroke-linecap: round;
        stroke-linejoin: round;
      }
      .t-fill {
        fill: var(--fill, currentColor);
        stroke: none;
      }
      .t-fill-stroke {
        fill: var(--fill, currentColor);
        stroke: var(--stroke, currentColor);
        stroke-width: var(--sw, 3);
        stroke-linecap: round;
        stroke-linejoin: round;
      }

      /* Theme variants */
      .theme-primary {
        --fill: #C9B36E;
        --stroke: #C9B36E;
        --sw: 6;
      }
      .theme-mono {
        --fill: #000000;
        --stroke: #000000;
        --sw: 6;
      }
      .theme-dark {
        --fill: #FFFFFF;
        --stroke: #FFFFFF;
        --sw: 6;
      }
    </style>

    <!-- ===========================
         REUSABLE SYMBOL ELEMENTS
         =========================== -->

    <!-- Crescent Moon -->
    <symbol id="t-moon" viewBox="0 0 100 100">
      <path class="t-fill" d="
        M40 15
        C25 20 15 35 18 50
        C21 65 35 75 50 73
        C38 68 30 55 30 42
        C30 29 38 20 50 18
        C46 16 43 15 40 15 Z" />
    </symbol>

    <!-- 4-Point Star -->
    <symbol id="t-star-4" viewBox="0 0 100 100">
      <path class="t-fill" d="
        M50 5
        L55 45
        L95 50
        L55 55
        L50 95
        L45 55
        L5 50
        L45 45
        Z" />
    </symbol>

    <!-- 4-Point Sparkle (smaller) -->
    <symbol id="t-sparkle" viewBox="0 0 100 100">
      <path class="t-fill" d="
        M50 10
        L54 45
        L89 50
        L54 55
        L50 90
        L46 55
        L11 50
        L46 45
        Z" />
    </symbol>

    <!-- Eye -->
    <symbol id="t-eye" viewBox="0 0 100 100">
      <path class="t-stroke" d="
        M50 25
        C70 35 75 50 65 65
        C55 75 45 75 35 65
        C25 50 30 35 50 25 Z" />
      <circle class="t-stroke" cx="50" cy="50" r="12" />
      <circle class="t-fill" cx="50" cy="50" r="5" />
    </symbol>

    <!-- Octopus Head -->
    <symbol id="t-octopus-head" viewBox="0 0 200 200">
      <!-- Head (perfect circle) -->
      <circle class="t-fill" cx="100" cy="90" r="65" />
      <!-- Happy eyes (upward arcs) -->
      <path class="t-stroke" d="M75 82 Q80 74 85 82" stroke-width="4" fill="none" stroke="#FFFFFF" stroke-linecap="round" />
      <path class="t-stroke" d="M115 82 Q120 74 125 82" stroke-width="4" fill="none" stroke="#FFFFFF" stroke-linecap="round" />
      <!-- Smile -->
      <path class="t-stroke" d="M82 108 Q100 118 118 108" stroke-width="4" fill="none" stroke="#FFFFFF" stroke-linecap="round" />
    </symbol>

    <!-- Single Tentacle (flowing wave) -->
    <symbol id="t-tentacle" viewBox="0 0 60 180">
      <path class="t-fill" d="
        M30 10
        Q25 50 28 90
        Q30 120 35 150
        Q38 170 42 175
        Q35 172 30 160
        Q25 130 22 100
        Q20 60 25 20
        Q27 12 30 10
        Z" />
    </symbol>
  </defs>

  <!-- ===========================
       MAIN LOGO MARK (no wordmark)
       =========================== -->
  <symbol id="tableu-mark" viewBox="0 0 432 576">
    <g class="theme-primary">
      <!-- Card Frame -->
      <rect class="t-stroke" x="10" y="10" width="412" height="556" rx="48" />

      <!-- Center Divider Line -->
      <line class="t-stroke" x1="216" y1="18" x2="216" y2="110" />

      <!-- Bottom Curved Baseline -->
      <path class="t-stroke" d="M40 490 Q216 470 392 490" />

      <!-- Moon (top left) -->
      <g transform="translate(70, 45) scale(0.9)">
        <use href="#t-moon" />
      </g>

      <!-- Star (top right) -->
      <g transform="translate(310, 40) scale(1.1)">
        <use href="#t-star-4" />
      </g>

      <!-- Wand with sparkle -->
      <path class="t-stroke" d="M320 170 Q300 200 280 230" />
      <g transform="translate(275, 145) scale(0.6)">
        <use href="#t-sparkle" />
      </g>

      <!-- Eye (right side) -->
      <g transform="translate(330, 240) scale(0.85)">
        <use href="#t-eye" />
      </g>

      <!-- Bottom left sparkle -->
      <g transform="translate(50, 360) scale(0.7)">
        <use href="#t-sparkle" />
      </g>

      <!-- Octopus -->
      <g transform="translate(116, 180)">
        <use href="#t-octopus-head" />

        <!-- 8 Tentacles spreading outward and downward -->
        <!-- Far far left -->
        <g transform="translate(5, 145) scale(0.9) rotate(-35 30 10)">
          <use href="#t-tentacle" />
        </g>

        <!-- Far left -->
        <g transform="translate(20, 148) scale(0.95) rotate(-25 30 10)">
          <use href="#t-tentacle" />
        </g>

        <!-- Mid left -->
        <g transform="translate(40, 152) scale(1.0) rotate(-12 30 10)">
          <use href="#t-tentacle" />
        </g>

        <!-- Center left -->
        <g transform="translate(60, 155) scale(1.05) rotate(-3 30 10)">
          <use href="#t-tentacle" />
        </g>

        <!-- Center right -->
        <g transform="translate(80, 155) scale(1.05) rotate(3 30 10)">
          <use href="#t-tentacle" />
        </g>

        <!-- Mid right -->
        <g transform="translate(100, 152) scale(1.0) rotate(12 30 10)">
          <use href="#t-tentacle" />
        </g>

        <!-- Far right -->
        <g transform="translate(120, 148) scale(0.95) rotate(25 30 10)">
          <use href="#t-tentacle" />
        </g>

        <!-- Far far right -->
        <g transform="translate(135, 145) scale(0.9) rotate(35 30 10)">
          <use href="#t-tentacle" />
        </g>
      </g>
    </g>
  </symbol>

  <!-- ===========================
       VARIANT 1: PRIMARY LOGO
       =========================== -->
  <symbol id="tableu-primary" viewBox="0 0 432 576">
    <use href="#tableu-mark" />
  </symbol>

  <!-- ===========================
       VARIANT 2: ICON (simplified)
       Remove: eye, wand, bottom sparkle
       =========================== -->
  <symbol id="tableu-icon" viewBox="0 0 432 576">
    <g class="theme-primary">
      <rect class="t-stroke" x="10" y="10" width="412" height="556" rx="48" />
      <line class="t-stroke" x1="216" y1="18" x2="216" y2="110" />
      <path class="t-stroke" d="M40 490 Q216 470 392 490" />

      <g transform="translate(70, 45) scale(0.9)">
        <use href="#t-moon" />
      </g>

      <g transform="translate(310, 40) scale(1.1)">
        <use href="#t-star-4" />
      </g>

      <!-- Octopus with tentacles -->
      <g transform="translate(116, 180)">
        <use href="#t-octopus-head" />
        <!-- 8 Tentacles -->
        <g transform="translate(5, 145) scale(0.9) rotate(-35 30 10)">
          <use href="#t-tentacle" />
        </g>
        <g transform="translate(20, 148) scale(0.95) rotate(-25 30 10)">
          <use href="#t-tentacle" />
        </g>
        <g transform="translate(40, 152) scale(1.0) rotate(-12 30 10)">
          <use href="#t-tentacle" />
        </g>
        <g transform="translate(60, 155) scale(1.05) rotate(-3 30 10)">
          <use href="#t-tentacle" />
        </g>
        <g transform="translate(80, 155) scale(1.05) rotate(3 30 10)">
          <use href="#t-tentacle" />
        </g>
        <g transform="translate(100, 152) scale(1.0) rotate(12 30 10)">
          <use href="#t-tentacle" />
        </g>
        <g transform="translate(120, 148) scale(0.95) rotate(25 30 10)">
          <use href="#t-tentacle" />
        </g>
        <g transform="translate(135, 145) scale(0.9) rotate(35 30 10)">
          <use href="#t-tentacle" />
        </g>
      </g>
    </g>
  </symbol>

  <!-- ===========================
       VARIANT 3: MONOCHROME
       =========================== -->
  <symbol id="tableu-mono" viewBox="0 0 432 576">
    <g class="theme-mono">
      <use href="#tableu-mark" />
    </g>
  </symbol>

  <!-- ===========================
       VARIANT 4: DARK MODE
       =========================== -->
  <symbol id="tableu-dark" viewBox="0 0 432 576">
    <g class="theme-dark">
      <use href="#tableu-mark" />
    </g>
  </symbol>

  <!-- ===========================
       VARIANT 5: FAVICON (octopus only)
       =========================== -->
  <symbol id="tableu-favicon" viewBox="0 0 200 250">
    <g class="theme-primary">
      <g transform="translate(0, 10)">
        <use href="#t-octopus-head" />

        <!-- 8 tentacles for favicon -->
        <g transform="translate(10, 145) scale(0.85) rotate(-35 30 10)">
          <use href="#t-tentacle" />
        </g>
        <g transform="translate(22, 148) scale(0.9) rotate(-25 30 10)">
          <use href="#t-tentacle" />
        </g>
        <g transform="translate(38, 152) scale(0.95) rotate(-12 30 10)">
          <use href="#t-tentacle" />
        </g>
        <g transform="translate(55, 155) scale(1.0) rotate(-3 30 10)">
          <use href="#t-tentacle" />
        </g>
        <g transform="translate(73, 155) scale(1.0) rotate(3 30 10)">
          <use href="#t-tentacle" />
        </g>
        <g transform="translate(90, 152) scale(0.95) rotate(12 30 10)">
          <use href="#t-tentacle" />
        </g>
        <g transform="translate(106, 148) scale(0.9) rotate(25 30 10)">
          <use href="#t-tentacle" />
        </g>
        <g transform="translate(118, 145) scale(0.85) rotate(35 30 10)">
          <use href="#t-tentacle" />
        </g>
      </g>
    </g>
  </symbol>

  <!-- ===========================
       VARIANT 6: WITH WORDMARK
       =========================== -->
  <symbol id="tableu-full" viewBox="0 0 432 720">
    <!-- Logo mark -->
    <use href="#tableu-mark" />

    <!-- TABLEU Wordmark -->
    <g class="theme-primary" transform="translate(0, 600)">
      <text
        x="216"
        y="80"
        text-anchor="middle"
        font-family="serif"
        font-size="72"
        font-weight="300"
        letter-spacing="12"
        fill="var(--fill, #C9B36E)">
        TABLEU
      </text>
    </g>
  </symbol>
</svg>
