<svg xmlns="http://www.w3.org/2000/svg" style="display:none">
  <defs>
    <style>
      .tableu-fill {
        fill: var(--fill, currentColor);
        stroke: none;
      }
      .theme-primary {
        --fill: #C9B36E;
      }
      .theme-mono {
        --fill: #000000;
      }
      .theme-dark {
        --fill: #FFFFFF;
      }
    </style>

    <g id="tableu-art-shape" transform="scale(0.421875,0.375)">
      <g transform="translate(0,1536) scale(0.1,-0.1)" class="tableu-fill">
<path d="M2953 12026 c-164 -40 -288 -157 -346 -325 l-22 -66 3 -1995 c3
-1728 5 -1997 18 -2010 11 -11 19 -12 32 -4 16 11 17 129 22 2010 l5 1999 24
59 c32 81 126 175 217 218 l69 33 1057 3 1058 2 2 -782 c3 -757 4 -783 22
-786 10 -2 22 2 27 10 5 7 9 361 9 786 l0 772 1058 -2 1057 -3 55 -26 c107
-51 184 -141 219 -254 18 -57 19 -115 22 -990 l4 -929 -75 -12 c-145 -23 -223
-53 -350 -138 -85 -56 -238 -204 -264 -254 -16 -31 -16 -35 0 -59 36 -56 181
-196 247 -240 124 -81 215 -116 362 -137 44 -7 79 -15 78 -19 -2 -4 -3 -662
-3 -1463 l0 -1456 -22 5 c-13 2 -88 23 -168 45 -586 164 -1285 248 -2115 257
-891 8 -1737 -85 -2394 -265 -101 -27 -188 -50 -192 -50 -5 0 -9 141 -9 314 0
336 -2 346 -50 331 -21 -7 -21 -7 -18 -449 l3 -442 39 -78 c47 -96 127 -178
217 -224 131 -66 -34 -62 2264 -62 2081 0 2091 0 2165 21 143 39 247 124 307
248 34 70 37 84 44 206 4 71 8 791 8 1599 1 808 3 1471 5 1474 3 2 38 11 80
18 135 26 256 86 384 193 76 63 172 178 172 205 0 26 -68 113 -142 181 -138
128 -280 201 -471 240 l-27 5 0 948 c0 845 -2 954 -16 1002 -46 155 -148 265
-299 322 l-60 23 -2130 2 c-1681 1 -2141 -1 -2182 -11z m4765 -2371 c75 -18
192 -70 257 -115 57 -39 165 -139 206 -191 l30 -38 -77 -81 c-245 -256 -555
-326 -858 -195 -95 41 -216 133 -292 222 l-46 54 25 32 c74 97 241 229 342
272 127 53 290 69 413 40z m-1833 -3479 c606 -48 1191 -145 1589 -263 l89 -27
-6 -75 c-3 -42 -13 -96 -23 -121 -41 -105 -130 -191 -241 -233 l-58 -22 -2094
-3 c-1310 -1 -2114 1 -2147 7 -79 15 -143 49 -205 111 -76 75 -109 147 -116
249 l-6 79 39 12 c552 159 1213 262 1924 300 251 13 1020 4 1255 -14z"/>
<path d="M7507 9517 c-119 -38 -181 -177 -128 -292 86 -186 372 -135 389 69 5
68 -9 112 -54 164 -26 30 -49 46 -86 57 -60 17 -70 18 -121 2z m123 -72 c117
-60 99 -227 -28 -266 -122 -36 -228 109 -157 217 38 58 124 81 185 49z"/>
<path d="M6703 11388 c-6 -7 -18 -36 -27 -64 -37 -114 -102 -182 -215 -223
-52 -19 -61 -26 -61 -47 0 -21 11 -30 74 -58 99 -45 152 -99 196 -198 27 -63
38 -78 56 -78 28 0 38 13 64 83 33 87 104 159 191 193 104 41 106 68 6 109
-108 43 -149 87 -201 213 -24 57 -37 78 -52 80 -12 2 -25 -3 -31 -10z"/>
<path d="M3671 11374 c-102 -22 -204 -75 -269 -141 -69 -71 -106 -137 -132
-239 -48 -188 -7 -360 118 -496 69 -74 132 -116 232 -154 69 -26 86 -28 220
-28 133 -1 150 1 205 24 51 21 60 29 63 54 2 16 -1 33 -6 38 -5 5 -52 10 -104
12 -88 2 -101 5 -171 39 -157 77 -234 219 -225 411 3 77 9 101 37 159 39 81
117 164 186 197 36 18 74 26 134 30 65 4 86 9 95 22 40 64 -208 110 -383 72z"/>
<path d="M6692 10583 c-5 -10 -15 -43 -22 -73 -21 -91 -69 -220 -121 -322 -80
-160 -146 -253 -276 -392 -75 -80 -82 -93 -61 -114 23 -23 45 -12 104 51 183
191 309 398 385 631 44 132 58 200 47 219 -12 22 -45 22 -56 0z"/>
<path d="M4926 10269 c-439 -64 -786 -365 -892 -774 -35 -138 -44 -340 -20
-483 31 -187 89 -320 213 -492 113 -158 131 -208 100 -283 -35 -82 -104 -132
-314 -229 -181 -84 -299 -161 -393 -257 -83 -84 -126 -156 -162 -271 -30 -98
-33 -301 -4 -395 24 -82 83 -190 118 -220 63 -53 155 -37 185 32 15 36 14 43
-8 133 -43 176 -24 317 60 447 75 116 155 169 356 238 125 42 278 112 327 148
59 44 98 45 98 2 0 -33 -73 -138 -130 -185 -112 -94 -204 -245 -236 -388 -25
-114 -16 -319 21 -432 63 -199 187 -343 281 -325 80 15 94 94 40 233 -45 119
-59 184 -59 272 1 144 60 293 157 393 28 29 105 93 170 142 66 49 151 122 190
162 89 93 98 94 179 7 34 -37 115 -105 180 -151 65 -47 139 -106 164 -132 114
-116 176 -262 176 -416 0 -101 -8 -138 -61 -275 -43 -113 -47 -168 -12 -205
97 -103 265 53 346 320 25 81 28 106 28 245 1 166 -7 215 -52 305 -40 81 -74
125 -177 225 -140 136 -181 206 -136 230 16 8 32 2 88 -37 81 -56 177 -97 338
-148 66 -20 142 -49 170 -62 62 -32 162 -132 197 -199 58 -108 75 -259 42
-379 -39 -142 -39 -168 1 -205 62 -58 155 -24 217 80 56 94 79 177 85 301 9
177 -29 315 -121 443 -90 125 -183 191 -451 321 -104 51 -209 107 -232 124
-52 38 -103 123 -103 171 0 48 37 120 106 212 80 104 118 169 159 269 93 229
101 540 21 775 -126 371 -456 644 -857 709 -100 16 -296 18 -393 4z m-145
-1510 c42 -15 125 -74 133 -96 4 -8 4 -24 1 -34 -10 -30 -53 -23 -96 15 -67
62 -157 58 -222 -9 -38 -39 -71 -45 -87 -15 -9 16 -7 26 8 48 62 86 168 123
263 91z m835 -8 c93 -42 142 -115 95 -141 -27 -14 -25 -14 -68 25 -36 33 -86
55 -126 55 -29 0 -81 -26 -120 -59 -30 -27 -39 -30 -57 -21 -73 39 66 160 185
160 28 0 68 -9 91 -19z m-627 -400 c71 -76 170 -76 243 0 40 42 67 49 89 23
27 -33 -48 -121 -130 -150 -81 -29 -169 -11 -237 49 -48 42 -63 79 -44 102 20
24 41 18 79 -24z"/>
<path d="M6770 8714 c-109 -29 -206 -103 -318 -242 -92 -113 -124 -142 -196
-180 -45 -23 -63 -26 -151 -27 -93 0 -100 -1 -100 -20 0 -28 84 -80 180 -111
103 -33 181 -29 271 16 49 24 76 48 131 112 37 45 89 95 113 110 98 60 193 61
277 5 57 -38 83 -75 118 -167 37 -98 94 -136 158 -105 125 59 85 327 -73 486
-115 116 -266 162 -410 123z"/>
<path d="M3258 8706 c-112 -33 -216 -109 -276 -204 -86 -135 -97 -320 -23
-386 44 -39 127 -16 159 45 7 13 22 51 34 84 56 158 212 218 359 139 31 -17
85 -65 140 -125 94 -102 139 -131 229 -144 92 -13 243 33 325 99 25 20 27 26
16 39 -10 13 -32 16 -105 14 -89 -2 -94 -1 -150 33 -60 36 -88 65 -193 192
-72 88 -175 169 -253 199 -69 27 -197 34 -262 15z"/>
<path d="M3131 7616 c-284 -285 -299 -303 -253 -321 13 -5 84 62 295 276 152
156 277 289 277 296 0 7 -8 17 -18 22 -16 8 -61 -33 -301 -273z"/>
<path d="M2591 7471 c-6 -11 -11 -28 -11 -39 0 -46 -33 -122 -71 -166 -48 -55
-99 -83 -189 -106 -57 -14 -65 -19 -68 -41 -4 -33 11 -44 76 -58 74 -15 145
-54 181 -98 37 -44 71 -130 71 -176 0 -36 24 -77 45 -77 24 0 45 30 45 65 0
52 38 143 79 188 39 43 130 92 192 102 25 4 43 14 50 27 16 30 -13 53 -91 72
-149 38 -199 97 -237 281 -7 33 -13 41 -35 43 -18 2 -30 -3 -37 -17z"/>
<path d="M1970 4503 c0 -16 -3 -59 -6 -98 l-7 -70 32 43 c50 67 112 92 234 92
l97 0 0 -386 c0 -399 -1 -405 -43 -451 l-20 -23 113 0 114 0 -30 31 -29 30 0
397 0 397 95 3 c121 4 163 -12 225 -80 l45 -50 -6 63 c-3 35 -7 79 -10 97 l-5
32 -399 0 -400 0 0 -27z"/>
<path d="M3385 4498 c22 -26 26 -39 22 -69 -3 -20 -72 -195 -153 -390 -127
302 -155 -359 -188 -391 l-38 -38 96 0 97 0 -22 29 c-26 35 -23 61 24 176
l32 80 201 3 201 2 42 -99 c45 -109 49 -135 25 -169 l-15 -22 122 0 122 0 -48
51 c-55 59 -75 101 -256 541 l-134 328 -78 0 -79 0 27 -32z m163 -324 c45
-112 81 -208 78 -212 -6 -10 -333 -15 -339 -5 -3 4 31 94 75 198 44 105 82
198 85 208 3 9 8 17 12 17 3 0 43 -93 89 -206z"/>
<path d="M4320 4526 c0 -3 14 -20 30 -38 l30 -32 0 -388 0 -387 -32 -37 -32
-36 235 4 c262 5 312 15 376 71 47 42 73 99 73 166 0 104 -64 187 -169 218
l-55 16 40 19 c148 75 189 253 83 359 -60 60 -106 69 -361 69 -120 0 -218 -2
-218 -4z m409 -66 c71 -20 114 -85 114 -171 0 -72 -24 -116 -84 -149 -38 -21
-59 -25 -156 -28 l-113 -4 0 181 0 181 103 0 c56 0 117 -4 136 -10z m-10 -421
c126 -27 194 -135 161 -255 -13 -47 -62 -99 -103 -109 -26 -7 -123 -10 -219
-7 l-68 2 0 190 0 190 90 0 c49 0 112 -5 139 -11z"/>
<path d="M5420 4524 c0 -4 14 -22 30 -41 l31 -34 -6 -387 -6 -387 -32 -32 -31
-33 312 0 312 0 4 23 c3 12 8 45 11 72 4 28 9 61 12 74 5 19 -2 15 -36 -22
-72 -78 -102 -87 -284 -87 l-157 0 0 398 0 398 31 32 31 32 -111 0 c-61 0
-111 -3 -111 -6z"/>
<path d="M6456 4493 l34 -37 0 -388 0 -387 -31 -36 -31 -35 316 0 316 0 4 23
c3 12 8 54 11 92 l7 70 -37 -43 c-65 -75 -90 -82 -280 -82 l-165 0 2 188 3
187 120 0 c133 -1 155 -8 185 -58 l20 -32 0 125 c-1 115 -2 122 -15 93 -25
-57 -54 -68 -190 -68 l-120 0 -3 183 -2 182 125 0 c161 0 209 -18 256 -95 l19
-30 0 46 c0 25 -3 67 -6 93 l-7 46 -282 0 -283 0 34 -37z"/>
<path d="M7447 4498 l32 -33 4 -310 c2 -200 8 -323 15 -346 33 -101 121 -178
232 -203 233 -53 410 30 471 222 19 60 21 94 24 332 1 146 3 275 4 287 0 12
13 35 27 52 l26 31 -100 0 -100 0 39 -39 39 -39 0 -263 c0 -350 -17 -420 -114
-483 -114 -74 -329 -49 -400 47 -57 77 -61 107 -61 424 l0 292 29 30 30 31
-114 0 -114 0 31 -32z"/>
      </g>
    </g>
  </defs>

  <symbol id="tableu-mark" viewBox="0 0 432 576">
    <g class="theme-primary">
      <use href="#tableu-art-shape" />
    </g>
  </symbol>

  <symbol id="tableu-primary" viewBox="0 0 432 576">
    <use href="#tableu-mark" />
  </symbol>

  <symbol id="tableu-icon" viewBox="0 0 432 576">
    <use href="#tableu-mark" />
  </symbol>

  <symbol id="tableu-mono" viewBox="0 0 432 576">
    <g class="theme-mono">
      <use href="#tableu-art-shape" />
    </g>
  </symbol>

  <symbol id="tableu-dark" viewBox="0 0 432 576">
    <g class="theme-dark">
      <use href="#tableu-art-shape" />
    </g>
  </symbol>

  <symbol id="tableu-favicon" viewBox="96 80 240 320">
    <g class="theme-primary">
      <use href="#tableu-art-shape" />
    </g>
  </symbol>

  <symbol id="tableu-full" viewBox="0 0 432 720">
    <g class="theme-primary">
      <use href="#tableu-art-shape" />
      <text
        x="216"
        y="660"
        text-anchor="middle"
        font-family="serif"
        font-size="120"
        font-weight="300"
        letter-spacing="12"
      >
        TABLEU
      </text>
    </g>
  </symbol>
</svg>
