<?xml version="1.0" standalone="no"?>
<!DOCTYPE svg PUBLIC "-//W3C//DTD SVG 20010904//EN"
 "http://www.w3.org/TR/2001/REC-SVG-20010904/DTD/svg10.dtd">
<svg version="1.0" xmlns="http://www.w3.org/2000/svg"
 width="256.000000pt" height="205.000000pt" viewBox="0 0 256.000000 205.000000"
 preserveAspectRatio="xMidYMid meet">
<metadata>
Created by potrace 1.16, written by Peter Selinger 2001-2019
</metadata>
<g transform="translate(0.000000,205.000000) scale(0.100000,-0.100000)"
fill="#000000" stroke="none">
<path d="M1505 1280 c-22 -3 -58 -14 -79 -23 -26 -12 -43 -14 -51 -7 -16 13
-28 0 -14 -16 8 -9 2 -18 -21 -36 -17 -12 -39 -23 -48 -23 -12 0 -16 -7 -14
-27 1 -14 -2 -29 -8 -33 -7 -4 -10 -158 -10 -452 l0 -446 40 -34 c22 -19 38
-38 35 -43 -12 -20 32 -24 255 -24 198 -1 241 -4 272 -18 21 -9 50 -16 65 -16
15 0 47 -2 70 -6 35 -6 53 -3 97 18 53 25 61 26 250 26 l196 0 0 69 c0 83 7
79 -168 88 -89 4 -130 2 -147 -7 -16 -8 -28 -9 -41 -2 -13 7 -26 5 -48 -7 -67
-36 -84 -41 -96 -26 -9 11 -3 19 32 42 24 15 46 28 51 29 4 1 8 2 10 4 9 7 75
12 230 17 l177 5 0 355 c0 305 -2 354 -14 344 -12 -10 -14 -61 -15 -268 -1
-160 -5 -261 -12 -269 -7 -9 -59 -13 -173 -16 -144 -3 -166 -5 -185 -22 -12
-11 -21 -16 -21 -13 0 4 -11 2 -25 -3 -15 -6 -26 -6 -30 1 -4 5 -7 145 -8 311
l-2 302 48 30 c27 16 58 32 70 34 47 8 269 13 285 6 9 -4 32 -8 50 -8 l33 -1
-3 80 -3 80 -60 8 c-67 9 -282 1 -299 -11 -6 -5 -20 -9 -32 -9 -11 -1 -50 -15
-87 -32 -37 -17 -70 -31 -73 -31 -3 0 -19 9 -34 20 -16 11 -32 20 -37 19 -10
-3 -60 16 -88 33 -23 13 -257 19 -320 8z"/>
</g>
</svg>
