<?xml version="1.0" standalone="no"?>
<!DOCTYPE svg PUBLIC "-//W3C//DTD SVG 20010904//EN"
 "http://www.w3.org/TR/2001/REC-SVG-20010904/DTD/svg10.dtd">
<svg version="1.0" xmlns="http://www.w3.org/2000/svg"
 width="256.000000pt" height="256.000000pt" viewBox="0 0 256.000000 256.000000"
 preserveAspectRatio="xMidYMid meet">
<metadata>
Created by potrace 1.16, written by Peter Selinger 2001-2019
</metadata>
<g transform="translate(0.000000,256.000000) scale(0.100000,-0.100000)"
fill="#000000" stroke="none">
<path d="M610 1446 c-5 -5 -10 -15 -10 -22 0 -20 -48 -44 -90 -44 -22 0 -40
-4 -40 -10 0 -5 -7 -10 -16 -10 -25 0 -74 -39 -74 -60 0 -51 42 -80 114 -80
37 0 50 -6 80 -35 20 -19 36 -38 36 -42 0 -12 51 -33 81 -33 28 0 91 19 99 30
3 4 15 12 27 18 12 7 23 22 25 33 l3 21 635 2 c730 1 695 -3 695 80 0 38 -4
51 -20 60 -10 6 -25 17 -33 24 -10 9 -154 12 -646 12 l-633 0 -26 30 c-15 17
-30 30 -35 31 -45 6 -164 3 -172 -5z m95 -155 c7 -12 -12 -24 -25 -16 -11 7
-4 25 10 25 5 0 11 -4 15 -9z"/>
</g>
</svg>
